Coordinates
version=1
nRows=29
nColumns=24
inDegrees=yes

Units are S.I. units (second, meters, Newtons, ...)
Angles are in degrees.

endheader
time	pelvis_tilt	pelvis_list	pelvis_rotation	pelvis_tx	pelvis_ty	pelvis_tz	hip_flexion_r	hip_adduction_r	hip_rotation_r	knee_angle_r	ankle_angle_r	subtalar_angle_r	mtp_angle_r	hip_flexion_l	hip_adduction_l	hip_rotation_l	knee_angle_l	ankle_angle_l	subtalar_angle_l	mtp_angle_l	lumbar_extension	lumbar_bending	lumbar_rotation
      1.14500000	      6.53217606	     -0.59478181	     -0.16002745	      0.03077626	      0.91474535	      0.00775982	     22.63534172	      0.69188293	     -6.57950003	    -34.79863168	     16.72569513	     -4.53952382	     36.35847999	    -19.34480186	      3.37173442	     -4.45072058	     -1.09457978	     18.94462471	      3.52004678	     24.09746169	    -17.83343857	     -1.82362861	     -7.39754216
      1.15000000	      6.60443423	     -0.62324971	      0.09283096	      0.03804874	      0.91401157	      0.00771798	     22.37129808	      0.69942291	     -7.01952454	    -32.47287296	     16.76183150	     -3.87699724	     36.44126117	    -20.01089851	      3.23847842	     -4.57248694	     -0.92862862	     19.12978664	      4.07832297	     24.22777053	    -17.90174284	     -1.77448938	     -7.68506238
      1.15500000	      6.71847286	     -0.65181316	      0.34534500	      0.04538448	      0.91329352	      0.00768861	     22.01541888	      0.71460499	     -7.48033444	    -30.10594280	     16.79707890	     -3.18634185	     36.54720909	    -20.71147923	      3.09912534	     -4.74693173	     -0.78829050	     19.26707445	      4.68898632	     24.36078156	    -18.01020088	     -1.72374582	     -7.95004559
      1.16000000	      6.84933338	     -0.68455028	      0.59191690	      0.05280260	      0.91256455	      0.00769082	     21.59810686	      0.74824113	     -7.94640607	    -27.71090562	     16.79491103	     -2.48445263	     36.69471805	    -21.42297085	      2.95000421	     -4.96530646	     -0.66998537	     19.36704882	      5.33950606	     24.51144882	    -18.12847137	     -1.66989420	     -8.18268815
      1.16500000	      6.93717210	     -0.68778995	      0.89222106	      0.06021875	      0.91171716	      0.00767472	     21.20444012	      0.74432415	     -8.44517099	    -25.33589989	     16.78330463	     -1.74528995	     36.82703893	    -22.04598038	      2.79739303	     -5.07656767	     -0.63053655	     19.57329233	      5.97495515	     24.65519962	    -18.20286551	     -1.63847788	     -8.50842470
      1.17000000	      7.05113059	     -0.69938540	      1.18670502	      0.06773184	      0.91088011	      0.00767860	     20.74436391	      0.76332565	     -8.95031429	    -22.95980552	     16.73110912	     -1.01030334	     36.97387550	    -22.69157690	      2.63137157	     -5.22916035	     -0.61053844	     19.73293715	      6.62521132	     24.80038992	    -18.29613912	     -1.59629810	     -8.80044460
      1.17500000	      7.18175437	     -0.69768227	      1.48101842	      0.07530360	      0.91003165	      0.00773974	     20.24451142	      0.78502933	     -9.45134340	    -20.62098982	     16.64513573	     -0.29533427	     37.14743647	    -23.33478464	      2.46662898	     -5.40266132	     -0.63569531	     19.86882811	      7.28879893	     24.95964516	    -18.40355514	     -1.57321926	     -9.09624398
      1.18000000	      7.28126636	     -0.69378715	      1.79440559	      0.08294996	      0.90909929	      0.00779848	     19.76030861	      0.81087655	     -9.94896574	    -18.33889089	     16.52578045	      0.36088209	     37.31352304	    -23.93055318	      2.28576618	     -5.52320074	     -0.69271935	     20.03932660	      7.94918476	     25.12859861	    -18.46908133	     -1.54671950	     -9.41019282
      1.18500000	      7.40990870	     -0.68979220	      2.11268046	      0.09066942	      0.90818208	      0.00789458	     19.22589342	      0.85058005	    -10.44738281	    -16.12075536	     16.35696406	      0.96482867	     37.48372386	    -24.53828026	      2.09031990	     -5.66163300	     -0.79419536	     20.18967904	      8.61607195	     25.31370897	    -18.56184158	     -1.51997055	     -9.71828164
      1.19000000	      7.59130454	     -0.67822816	      2.39815734	      0.09846995	      0.90731268	      0.00805864	     18.63057770	      0.90544966	    -10.91108917	    -14.00676893	     16.13611404	      1.53075936	     37.72525262	    -25.19142365	      1.90529676	     -5.86576774	     -0.93055794	     20.28617421	      9.28919042	     25.55906319	    -18.70582773	     -1.50859162	     -9.97202052
      1.19500000	      7.68856504	     -0.66538108	      2.73767020	      0.10633180	      0.90630926	      0.00821499	     18.12423368	      0.95882984	    -11.35015629	    -12.02088331	     15.93747811	      1.89408694	     37.89494424	    -25.72602676	      1.68356148	     -5.93885531	     -1.11763762	     20.44796769	      9.93051449	     25.80416680	    -18.75196617	     -1.49061877	    -10.31025173
      1.20000000	      7.85319490	     -0.65684512	      3.03998579	      0.11426715	      0.90539203	      0.00842582	     17.55590415	      1.03418387	    -11.77211894	    -10.18691789	     15.66587624	      2.23362605	     38.09476217	    -26.31583226	      1.46273244	     -6.09465814	     -1.34988732	     20.53511160	     10.57089943	     26.12056764	    -18.86455265	     -1.47189078	    -10.55948281
      1.20500000	      7.99370889	     -0.65446315	      3.35485552	      0.12226023	      0.90442684	      0.00863639	     17.03267777	      1.11963094	    -12.14929210	     -8.53608420	     15.41396754	      2.38682306	     38.25632777	    -26.86158695	      1.21963594	     -6.19608865	     -1.61650184	     20.63738376	     11.18293554	     26.48640612	    -18.94727715	     -1.44115630	    -10.82564291
      1.21000000	      8.12112770	     -0.66113117	      3.66016458	      0.13031644	      0.90346159	      0.00888391	     16.54649594	      1.22150146	    -12.46641171	     -7.08051371	     15.15638069	      2.39951961	     38.38279653	    -27.36679534	      0.96026604	     -6.28672752	     -1.93923116	     20.71409872	     11.76060109	     26.90887896	    -19.00804993	     -1.40257084	    -11.08407933
      1.21500000	      8.26589241	     -0.69144996	      3.95301094	      0.13843491	      0.90252432	      0.00914416	     16.07170322	      1.35268262	    -12.74365548	     -5.83580313	     14.91010328	      2.27555579	     38.47502073	    -27.87603040	      0.67226230	     -6.37465902	     -2.29090846	     20.76588177	     12.32694019	     27.42415925	    -19.08074186	     -1.33655806	    -11.29182086
      1.22000000	      8.39605739	     -0.73742091	      4.24639935	      0.14659913	      0.90160700	      0.00939967	     15.64749570	      1.49626014	    -12.98398343	     -4.81402443	     14.65268651	      2.00955246	     38.54340710	    -28.34062470	      0.35956783	     -6.42875753	     -2.69468539	     20.77808462	     12.85746363	     28.10447763	    -19.13228394	     -1.25053015	    -11.46426562
      1.22500000	      8.53505367	     -0.80625853	      4.52548938	      0.15481197	      0.90073917	      0.00966442	     15.24978861	      1.66514584	    -13.16334840	     -4.01789456	     14.41765313	      1.58938897	     38.55007167	    -28.77787510	      0.02385337	     -6.50496863	     -3.16959115	     20.76059687	     13.31757541	     28.83804905	    -19.18694753	     -1.13614675	    -11.64551723
      1.23000000	      8.67158549	     -0.90386252	      4.82077620	      0.16307411	      0.89990110	      0.00991207	     14.89151637	      1.85619857	    -13.29996779	     -3.45108029	     14.25134548	      1.02357184	     38.49982960	    -29.19476211	     -0.35958247	     -6.49638954	     -3.66826633	     20.71047979	     13.75590575	     29.46441795	    -19.23292766	     -0.98317666	    -11.81671407
      1.23500000	      8.77164574	     -1.03656747	      5.07728140	      0.17142527	      0.89907158	      0.01016813	     14.61285986	      2.07763902	    -13.42769630	     -3.10442048	     14.02755328	      0.50687100	     38.50107782	    -29.52897304	     -0.76043408	     -6.58638753	     -4.24663084	     20.54200552	     14.14222852	     31.44122591	    -19.22400067	     -0.79784006	    -11.93291888
      1.24000000	      8.88603048	     -1.16439509	      5.39333486	      0.17970729	      0.89834622	      0.01031719	     14.35299933	      2.27435948	    -13.54210172	     -2.96647662	     13.80410604	     -0.20292819	     38.39469452	    -29.82474287	     -1.19147698	     -6.43640725	     -4.91308960	     20.50121971	     14.40471185	     31.70198486	    -19.24032412	     -0.59152639	    -12.08103293
      1.24500000	      9.10563343	     -1.38574265	      5.56864800	      0.18812676	      0.89774326	      0.01066072	     14.03030356	      2.61518147	    -13.46459065	     -3.04137484	     13.58679078	     -1.11695445	     38.27702041	    -30.24935208	     -1.66381516	     -6.59901627	     -5.56772652	     20.34215907	     14.86086559	     32.65910167	    -19.34813434	     -0.31206116	    -12.01126034
      1.25000000	      9.17898881	     -1.59508288	      5.81406640	      0.19653292	      0.89706673	      0.01087228	     13.91630118	      2.89009816	    -13.49940829	     -3.34290272	     13.32106051	     -1.85583822	     38.21743115	    -30.42906808	     -2.15037171	     -6.56127138	     -6.34577441	     19.99039868	     15.03247008	     35.17529018	    -19.29699394	     -0.02990019	    -12.07646636
      1.25500000	      9.34320344	     -1.83775960	      6.02140268	      0.20491565	      0.89655022	      0.01112934	     13.73009016	      3.22087752	    -13.39901956	     -3.78455923	     13.01683781	     -2.80714322	     38.09945155	    -30.67085524	     -2.66378071	     -6.52319905	     -7.20335225	     19.81308567	     15.29091677	     35.79109297	    -19.34691463	      0.29056157	    -12.04416431
      1.26000000	      9.40175301	     -2.10335246	      6.20416373	      0.21333747	      0.89597244	      0.01139464	     13.71919226	      3.55232262	    -13.31156204	     -4.43539446	     12.65560861	     -3.63675102	     38.08107199	    -30.73865265	     -3.18353716	     -6.48590010	     -8.14987374	     19.40824020	     15.41962888	     38.14811190	    -19.27228897	      0.62521094	    -12.01684687
      1.26500000	      9.46640298	     -2.39226793	      6.35212716	      0.22173855	      0.89546830	      0.01170601	     13.73509654	      3.91451160	    -13.13034771	     -5.21527075	     12.23393794	     -4.56779087	     38.04305398	    -30.75987457	     -3.71429308	     -6.43372965	     -9.19518844	     19.04617728	     15.57182413	     39.73291912	    -19.20556147	      0.97992062	    -11.93505260
      1.27000000	      9.54208321	     -2.69222550	      6.53069774	      0.23006176	      0.89506346	      0.01199187	     13.76335109	      4.27970489	    -12.96228266	     -6.09117681	     11.72294425	     -5.49306900	     37.92182740	    -30.69634283	     -4.28047786	     -6.29613686	    -10.40751770	     18.78426325	     15.77707665	     40.22589336	    -19.15976650	      1.35899546	    -11.90698089
      1.27500000	      9.47193565	     -3.01746652	      6.44594150	      0.23841394	      0.89447615	      0.01261080	     14.04090556	      4.70814506	    -12.40667912	     -7.17942080	     11.22406040	     -6.62444879	     37.90076660	    -30.48881442	     -4.72098283	     -6.34233686	    -11.62679091	     18.24111283	     15.73132759	     42.39676565	    -18.95320676	      1.68178681	    -11.53966846
      1.28000000	      9.40843549	     -3.33831352	      6.50708173	      0.24666295	      0.89403047	      0.01305424	     14.31793816	      5.08998573	    -12.09960285	     -8.31464122	     10.60942004	     -7.53178975	     37.88484968	    -30.15031656	     -5.24129230	     -6.18462805	    -13.04292567	     17.68775710	     15.73124058	     44.42919412	    -18.76689386	      2.04409604	    -11.41307092
      1.28500000	      9.29861258	     -3.65999627	      6.51060081	      0.25485623	      0.89358655	      0.01356355	     14.68243539	      5.47172605	    -11.73482355	     -9.54902620	     10.05037293	     -8.32751790	     37.86873320	    -29.69352592	     -5.72826172	     -5.99484731	    -14.58000240	     17.07685453	     15.66132077	     46.29179651	    -18.53899922	      2.39171152	    -11.22293571
